<svg clip-rule="evenodd" fill-rule="evenodd" image-rendering="optimizeQuality" shape-rendering="geometricPrecision" text-rendering="geometricPrecision" viewBox="0 0 2.90175 2.90175" xmlns="http://www.w3.org/2000/svg"><path d="m.76572.30896h1.3703c.25159 0 .45677.20518.45677.45677v1.3703c0 .25159-.20518.45677-.45677.45677h-1.3703c-.25159 0-.45677-.20518-.45677-.45677v-1.3703c0-.25159.20518-.45677.45677-.45677z" fill="#4d4948" stroke="#4d4948" stroke-width=".040275"/><g fill="none" stroke="#e77817" stroke-linecap="round" stroke-width=".161136"><path d="m.30896 1.9076h-.228386"/><path d="m.30896 1.6791h-.228386"/><path d="m.30896 1.2225h-.228386"/><path d="m.30896 1.4507h-.228386"/><path d="m.30896.99392h-.228386"/><path d="m.30896.76554h-.228386"/><path d="m.30896 2.1359h-.228386"/><path d="m2.8212 1.9076h-.2284"/><path d="m2.8212 1.6791h-.2284"/><path d="m2.8212 1.2225h-.2284"/><path d="m2.8212 1.4507h-.2284"/><path d="m2.8212.99392h-.2284"/><path d="m2.8212.76554h-.2284"/><path d="m2.8212 2.1359h-.2284"/><path d="m.99411 2.8212v-.2284"/><path d="m1.2227 2.8212v-.2284"/><path d="m1.6793 2.8212v-.2284"/><path d="m1.4511 2.8212v-.2284"/><path d="m1.9078 2.8212v-.2284"/><path d="m2.1362 2.8212v-.2284"/><path d="m.76582 2.8212v-.2284"/><path d="m.99402.30896v-.228386"/><path d="m1.2226.30896v-.228386"/><path d="m1.6792.30896v-.228386"/><path d="m1.451.30896v-.228386"/><path d="m1.9077.30896v-.228386"/><path d="m2.1361.30896v-.228386"/><path d="m.76572.30896v-.228386"/></g><path d="m.90275.62869h1.0962c.15095 0 .27406.12311.27406.27406v1.0962c0 .15095-.12311.27406-.27406.27406h-1.0962c-.15095 0-.27406-.12311-.27406-.27406v-1.0962c0-.15095.12311-.27406.27406-.27406z" fill="#75c5f0" stroke="#007cc3" stroke-width=".080562"/><path d="m1.1268.97163c0 .032568-.0025579.061892-.0078107.08811-.0052985.026173-.013886.048554-.025716.067008-.011785.018499-.027269.032659-.04627.042525-.01891.0097748-.042205.014754-.069748.014754-.027817 0-.050884-.0047504-.069154-.014297-.018271-.0095921-.03275-.023341-.043393-.041246-.010734-.017951-.018271-.039876-.022564-.065774-.0042936-.025853-.0064404-.055177-.0064404-.087973 0-.032339.0026949-.061664.0080391-.087973.0053898-.02631.013977-.048646.025807-.067145.011785-.018453.027269-.032659.04627-.042525.01891-.0099118.042114-.014708.069428-.014708.027817 0 .051021.0047047.069383.014251.018271.0095921.032842.023341.043484.041292.010734.017905.018179.03983.022336.065729.0042022.025899.006349.055223.006349.087973zm-.08336.0040652c0-.019321-.00054812-.036313-.0015987-.051112-.0010962-.014845-.0026949-.027634-.0048417-.038551-.0022382-.010962-.0049331-.020235-.0082675-.027726-.003243-.0075366-.0072169-.013566-.011693-.018042-.0046133-.004522-.0099118-.007765-.015804-.0096834-.0058923-.0018271-.012378-.0027863-.01955-.0027863-.012378 0-.022564.0030147-.030603.008907-.0080848.0060293-.014525.015028-.01923.026949-.0047504.011922-.0080848.026858-.0099118.044717-.0019184.017814-.0028776.038551-.0028776.062303 0 .029005.0011876.052939.0035171.071849.0022838.019002.005938.034166.010871.045357.0049331.011282.011282.019093.019002.023615.007765.004522.017083.0067601.028046.0067601.0081761 0 .015347-.001279.021696-.0039739.0062577-.0025579.01183-.0065318.016535-.011693.0047504-.0052528.0085872-.011922.011739-.019869.0031974-.0079477.0058009-.017174.0077194-.027726.0020554-.010414.0033344-.022336.0040652-.035536.0007765-.013246.0011876-.027863.0011876-.043758zm.39812.16964c0 .0058923-.00031974.010825-.00095921.014936-.00063947.0040652-.0015073.0073996-.0026949.0097748s-.0024665.0042022-.0039739.0051615c-.0013703.0010506-.003106.0015987-.0050244.0015987h-.22464c-.0017357 0-.0033344-.00054812-.0047504-.0015987-.0014616-.00095921-.0027863-.0027863-.0039739-.0051615-.0011419-.0023752-.0020098-.0057096-.0026492-.0097748-.00063947-.0041109-.00095921-.009044-.00095921-.014936 0-.0061207.00031974-.011191.00082218-.015256.00054812-.0040652.0013246-.0073996.0024665-.0098662.0011876-.0026036.0025122-.0044306.0039739-.0056182.001416-.0010506.0031517-.00169.0050701-.00169h.075823v-.26502l-.0655.036176c-.0048417.0023752-.0087242.0037912-.01183.0042936-.0030147.00054812-.0053898-.00009135-.0072169-.0019184-.0018271-.0017357-.002969-.0048417-.0036085-.0092267-.00054812-.0044306-.00086786-.010643-.00086786-.01859 0-.0050701.00009135-.0091353.00031974-.01247.00009135-.0031974.00063947-.0060293.0015073-.0082675.00082218-.0023752.0020098-.0042022.0034258-.0057096.0015073-.0015073.0035628-.0030147.0060293-.0047047l.087516-.056639c.0010049-.00082218.0022838-.0015073.0038825-.0020098.0015987-.00054812.0036541-.00095921.0061207-.001279.0026036-.00036541.0058009-.00054812.010003-.00068515.0040652-.00009135.009318-.00009135.015896-.00009135.0079477 0 .014388.00009135.019321.00041109.0049331.00036541.0085872.00086786.011191.0016444.0024665.00063947.0042022.00169.0050244.0028776.0007765.001279.0011876.0029233.0011876.0047504v.33645h.066414c.0019184 0 .0036541.00063947.0052528.00169.0015073.0011876.0028776.0030147.0040652.0056182.0011876.0024665.0019641.0058009.0024665.0098662.00054812.0040652.00086786.0091353.00086786.015256zm.3386-.17371c0 .032568-.0025579.061892-.0078107.08811-.0052985.026173-.013886.048554-.025716.067008-.011785.018499-.027269.032659-.04627.042525-.01891.0097748-.042205.014754-.069748.014754-.027817 0-.050884-.0047504-.069154-.014297-.018271-.0095921-.03275-.023341-.043393-.041246-.010734-.017951-.018271-.039876-.022564-.065774-.0042936-.025853-.0064404-.055177-.0064404-.087973 0-.032339.0026949-.061664.0080391-.087973.0053898-.02631.013977-.048646.025807-.067145.011785-.018453.027269-.032659.04627-.042525.01891-.0099118.042114-.014708.069428-.014708.027817 0 .051021.0047047.069383.014251.018271.0095921.032842.023341.043484.041292.010734.017905.018179.03983.022336.065729.0042022.025899.006349.055223.006349.087973zm-.08336.0040652c0-.019321-.00054812-.036313-.0015987-.051112-.0010962-.014845-.0026949-.027634-.0048417-.038551-.0022382-.010962-.0049331-.020235-.0082675-.027726-.003243-.0075366-.0072169-.013566-.011693-.018042-.0046133-.004522-.0099118-.007765-.015804-.0096834-.0058923-.0018271-.012378-.0027863-.01955-.0027863-.012378 0-.022564.0030147-.030603.008907-.0080848.0060293-.014525.015028-.01923.026949-.0047504.011922-.0080848.026858-.0099118.044717-.0019184.017814-.0028776.038551-.0028776.062303 0 .029005.0011876.052939.0035171.071849.0022838.019002.005938.034166.010871.045357.0049331.011282.011282.019093.019002.023615.007765.004522.017083.0067601.028046.0067601.0081761 0 .015347-.001279.021696-.0039739.0062577-.0025579.01183-.0065318.016535-.011693.0047504-.0052528.0085872-.011922.011739-.019869.0031974-.0079477.0058009-.017174.0077194-.027726.0020554-.010414.0033344-.022336.0040652-.035536.0007765-.013246.0011876-.027863.0011876-.043758zm.39812.16964c0 .0058923-.00031974.010825-.00095921.014936-.00063947.0040652-.0015073.0073996-.0026949.0097748s-.0024665.0042022-.0039739.0051615c-.0013703.0010506-.003106.0015987-.0050244.0015987h-.22464c-.0017357 0-.0033344-.00054812-.0047504-.0015987-.0014616-.00095921-.0027863-.0027863-.0039739-.0051615-.0011419-.0023752-.0020098-.0057096-.0026492-.0097748-.00063947-.0041109-.00095921-.009044-.00095921-.014936 0-.0061207.00031974-.011191.00082218-.015256.00054812-.0040652.0013246-.0073996.0024665-.0098662.0011876-.0026036.0025122-.0044306.0039739-.0056182.001416-.0010506.0031517-.00169.0050701-.00169h.075823v-.26502l-.0655.036176c-.0048417.0023752-.0087242.0037912-.01183.0042936-.0030147.00054812-.0053898-.00009135-.0072169-.0019184-.0018271-.0017357-.002969-.0048417-.0036085-.0092267-.00054812-.0044306-.00086786-.010643-.00086786-.01859 0-.0050701.00009135-.0091353.00031974-.01247.00009135-.0031974.00063947-.0060293.0015073-.0082675.00082218-.0023752.0020098-.0042022.0034258-.0057096.0015073-.0015073.0035628-.0030147.0060293-.0047047l.087516-.056639c.0010049-.00082218.0022838-.0015073.0038825-.0020098.0015987-.00054812.0036541-.00095921.0061207-.001279.0026036-.00036541.0058009-.00054812.010003-.00068515.0040652-.00009135.009318-.00009135.015896-.00009135.0079477 0 .014388.00009135.019321.00041109.0049331.00036541.0085872.00086786.011191.0016444.0024665.00063947.0042022.00169.0050244.0028776.0007765.001279.0011876.0029233.0011876.0047504v.33645h.066414c.0019184 0 .0036541.00063947.0052528.00169.0015073.0011876.0028776.0030147.0040652.0056182.0011876.0024665.0019641.0058009.0024665.0098662.00054812.0040652.00086786.0091353.00086786.015256zm-.98004.47207c0 .0058923-.00031974.010825-.00095921.014936-.00063947.0040652-.0015073.0073996-.0026949.0097748s-.0024665.0042022-.0039739.0051615c-.0013703.0010506-.003106.0015987-.0050244.0015987h-.22464c-.0017357 0-.0033344-.00054812-.0047504-.0015987-.0014616-.00095921-.0027863-.0027863-.0039739-.0051615-.0011419-.0023752-.0020098-.0057096-.0026492-.0097748-.00063947-.0041109-.00095921-.009044-.00095921-.014936 0-.0061207.00031974-.011191.00082218-.015256.00054812-.0040652.0013246-.0073996.0024665-.0098662.0011876-.0026036.0025122-.0044306.0039739-.0056182.001416-.0010506.0031517-.00169.0050701-.00169h.075823v-.26502l-.0655.036176c-.0048417.0023752-.0087242.0037912-.01183.0042936-.0030147.00054812-.0053898-.00009135-.0072169-.0019184-.0018271-.0017357-.002969-.0048417-.0036085-.0092267-.00054812-.0044306-.00086786-.010643-.00086786-.01859 0-.0050701.00009135-.0091353.00031974-.01247.00009135-.0031974.00063947-.0060293.0015073-.0082675.00082218-.0023752.0020098-.0042022.0034258-.0057096.0015073-.0015073.0035628-.0030147.0060293-.0047047l.087516-.056639c.0010049-.00082218.0022838-.0015073.0038825-.0020098.0015987-.00054812.0036541-.00095921.0061207-.001279.0026036-.00036541.0058009-.00054812.010003-.00068515.0040652-.00009135.009318-.00009135.015896-.00009135.0079477 0 .014388.00009135.019321.00041109.0049331.00036541.0085872.00086786.011191.0016444.0024665.00063947.0042022.00169.0050244.0028776.0007765.001279.0011876.0029233.0011876.0047504v.33645h.066414c.0019184 0 .0036541.00063947.0052528.00169.0015073.0011876.0028776.0030147.0040652.0056182.0011876.0024665.0019641.0058009.0024665.0098662.00054812.0040652.00086786.0091353.00086786.015256zm.3386-.17371c0 .032568-.0025579.061892-.0078107.08811-.0052985.026173-.013886.048554-.025716.067008-.011785.018499-.027269.032659-.04627.042525-.01891.0097748-.042205.014754-.069748.014754-.027817 0-.050884-.0047504-.069154-.014297-.018271-.0095921-.03275-.023341-.043393-.041246-.010734-.017951-.018271-.039876-.022564-.065774-.0042936-.025853-.0064404-.055177-.0064404-.087973 0-.032339.0026949-.061664.0080391-.087973.0053898-.02631.013977-.048646.025807-.067145.011785-.018453.027269-.032659.04627-.042525.01891-.0099118.042114-.014708.069428-.014708.027817 0 .051021.0047047.069383.014251.018271.0095921.032842.023341.043484.041292.010734.017905.018179.03983.022336.065729.0042022.025899.006349.055223.006349.087973zm-.08336.0040652c0-.019321-.00054812-.036313-.0015987-.051112-.0010962-.014845-.0026949-.027634-.0048417-.038551-.0022382-.010962-.0049331-.020235-.0082675-.027726-.003243-.0075366-.0072169-.013566-.011693-.018042-.0046133-.004522-.0099118-.007765-.015804-.0096834-.0058923-.0018271-.012378-.0027863-.01955-.0027863-.012378 0-.022564.0030147-.030603.008907-.0080848.0060293-.014525.015028-.01923.026949-.0047504.011922-.0080848.026858-.0099118.044717-.0019184.017814-.0028776.038551-.0028776.062303 0 .029005.0011876.052939.0035171.071849.0022838.019002.005938.034166.010871.045357.0049331.011282.011282.019093.019002.023615.007765.004522.017083.0067601.028046.0067601.0081761 0 .015347-.001279.021696-.0039739.0062577-.0025579.01183-.0065318.016535-.011693.0047504-.0052528.0085872-.011922.011739-.019869.0031974-.0079477.0058009-.017174.0077194-.027726.0020554-.010414.0033344-.022336.0040652-.035536.0007765-.013246.0011876-.027863.0011876-.043758zm.39812.16964c0 .0058923-.00031974.010825-.00095921.014936-.00063947.0040652-.0015073.0073996-.0026949.0097748s-.0024665.0042022-.0039739.0051615c-.0013703.0010506-.003106.0015987-.0050244.0015987h-.22464c-.0017357 0-.0033344-.00054812-.0047504-.0015987-.0014616-.00095921-.0027863-.0027863-.0039739-.0051615-.0011419-.0023752-.0020098-.0057096-.0026492-.0097748-.00063947-.0041109-.00095921-.009044-.00095921-.014936 0-.0061207.00031974-.011191.00082218-.015256.00054812-.0040652.0013246-.0073996.0024665-.0098662.0011876-.0026036.0025122-.0044306.0039739-.0056182.001416-.0010506.0031517-.00169.0050701-.00169h.075823v-.26502l-.0655.036176c-.0048417.0023752-.0087242.0037912-.01183.0042936-.0030147.00054812-.0053898-.00009135-.0072169-.0019184-.0018271-.0017357-.002969-.0048417-.0036085-.0092267-.00054812-.0044306-.00086786-.010643-.00086786-.01859 0-.0050701.00009135-.0091353.00031974-.01247.00009135-.0031974.00063947-.0060293.0015073-.0082675.00082218-.0023752.0020098-.0042022.0034258-.0057096.0015073-.0015073.0035628-.0030147.0060293-.0047047l.087516-.056639c.0010049-.00082218.0022838-.0015073.0038825-.0020098.0015987-.00054812.0036541-.00095921.0061207-.001279.0026036-.00036541.0058009-.00054812.010003-.00068515.0040652-.00009135.009318-.00009135.015896-.00009135.0079477 0 .014388.00009135.019321.00041109.0049331.00036541.0085872.00086786.011191.0016444.0024665.00063947.0042022.00169.0050244.0028776.0007765.001279.0011876.0029233.0011876.0047504v.33645h.066414c.0019184 0 .0036541.00063947.0052528.00169.0015073.0011876.0028776.0030147.0040652.0056182.0011876.0024665.0019641.0058009.0024665.0098662.00054812.0040652.00086786.0091353.00086786.015256zm.3386-.17371c0 .032568-.0025579.061892-.0078107.08811-.0052985.026173-.013886.048554-.025716.067008-.011785.018499-.027269.032659-.04627.042525-.01891.0097748-.042205.014754-.069748.014754-.027817 0-.050884-.0047504-.069154-.014297-.018271-.0095921-.03275-.023341-.043393-.041246-.010734-.017951-.018271-.039876-.022564-.065774-.0042936-.025853-.0064404-.055177-.0064404-.087973 0-.032339.0026949-.061664.0080391-.087973.0053898-.02631.013977-.048646.025807-.067145.011785-.018453.027269-.032659.04627-.042525.01891-.0099118.042114-.014708.069428-.014708.027817 0 .051021.0047047.069383.014251.018271.0095921.032842.023341.043484.041292.010734.017905.018179.03983.022336.065729.0042022.025899.006349.055223.006349.087973zm-.08336.0040652c0-.019321-.00054812-.036313-.0015987-.051112-.0010962-.014845-.0026949-.027634-.0048417-.038551-.0022382-.010962-.0049331-.020235-.0082675-.027726-.003243-.0075366-.0072169-.013566-.011693-.018042-.0046133-.004522-.0099118-.007765-.015804-.0096834-.0058923-.0018271-.012378-.0027863-.01955-.0027863-.012378 0-.022564.0030147-.030603.008907-.0080848.0060293-.014525.015028-.01923.026949-.0047504.011922-.0080848.026858-.0099118.044717-.0019184.017814-.0028776.038551-.0028776.062303 0 .029005.0011876.052939.0035171.071849.0022838.019002.005938.034166.010871.045357.0049331.011282.011282.019093.019002.023615.007765.004522.017083.0067601.028046.0067601.0081761 0 .015347-.001279.021696-.0039739.0062577-.0025579.01183-.0065318.016535-.011693.0047504-.0052528.0085872-.011922.011739-.019869.0031974-.0079477.0058009-.017174.0077194-.027726.0020554-.010414.0033344-.022336.0040652-.035536.0007765-.013246.0011876-.027863.0011876-.043758zm-.89668.468c0 .032568-.0025579.061892-.0078107.08811-.0052985.026173-.013886.048554-.025716.067008-.011785.018499-.027269.032659-.04627.042525-.01891.0097748-.042205.014754-.069748.014754-.027817 0-.050884-.0047504-.069154-.014297-.018271-.0095921-.03275-.023341-.043393-.041246-.010734-.017951-.018271-.039876-.022564-.065774-.0042936-.025853-.0064404-.055177-.0064404-.087973 0-.032339.0026949-.061664.0080391-.087973.0053898-.02631.013977-.048646.025807-.067145.011785-.018453.027269-.032659.04627-.042525.01891-.0099118.042114-.014708.069428-.014708.027817 0 .051021.0047047.069383.014251.018271.0095921.032842.023341.043484.041292.010734.017905.018179.03983.022336.065729.0042022.025899.006349.055223.006349.087973zm-.08336.0040652c0-.019321-.00054812-.036313-.0015987-.051112-.0010962-.014845-.0026949-.027634-.0048417-.038551-.0022382-.010962-.0049331-.020235-.0082675-.027726-.003243-.0075366-.0072169-.013566-.011693-.018042-.0046133-.004522-.0099118-.007765-.015804-.0096834-.0058923-.0018271-.012378-.0027863-.01955-.0027863-.012378 0-.022564.0030147-.030603.008907-.0080848.0060293-.014525.015028-.01923.026949-.0047504.011922-.0080848.026858-.0099118.044717-.0019184.017814-.0028776.038551-.0028776.062303 0 .029005.0011876.052939.0035171.071849.0022838.019002.005938.034166.010871.045357.0049331.011282.011282.019093.019002.023615.007765.004522.017083.0067601.028046.0067601.0081761 0 .015347-.001279.021696-.0039739.0062577-.0025579.01183-.0065318.016535-.011693.0047504-.0052528.0085872-.011922.011739-.019869.0031974-.0079477.0058009-.017174.0077194-.027726.0020554-.010414.0033344-.022336.0040652-.035536.0007765-.013246.0011876-.027863.0011876-.043758zm.39812.16964c0 .0058923-.00031974.010825-.00095921.014936-.00063947.0040652-.0015073.0073996-.0026949.0097748s-.0024665.0042022-.0039739.0051615c-.0013703.0010506-.003106.0015987-.0050244.0015987h-.22464c-.0017357 0-.0033344-.00054812-.0047504-.0015987-.0014616-.00095921-.0027863-.0027863-.0039739-.0051615-.0011419-.0023752-.0020098-.0057096-.0026492-.0097748-.00063947-.0041109-.00095921-.009044-.00095921-.014936 0-.0061207.00031974-.011191.00082218-.015256.00054812-.0040652.0013246-.0073996.0024665-.0098662.0011876-.0026036.0025122-.0044306.0039739-.0056182.001416-.0010506.0031517-.00169.0050701-.00169h.075823v-.26502l-.0655.036176c-.0048417.0023752-.0087242.0037912-.01183.0042936-.0030147.00054812-.0053898-.00009135-.0072169-.0019184-.0018271-.0017357-.002969-.0048417-.0036085-.0092267-.00054812-.0044306-.00086786-.010643-.00086786-.01859 0-.0050701.00009135-.0091353.00031974-.01247.00009135-.0031974.00063947-.0060293.0015073-.0082675.00082218-.0023752.0020098-.0042022.0034258-.0057096.0015073-.0015073.0035628-.0030147.0060293-.0047047l.087516-.056639c.0010049-.00082218.0022838-.0015073.0038825-.0020098.0015987-.00054812.0036541-.00095921.0061207-.001279.0026036-.00036541.0058009-.00054812.010003-.00068515.0040652-.00009135.009318-.00009135.015896-.00009135.0079477 0 .014388.00009135.019321.00041109.0049331.00036541.0085872.00086786.011191.0016444.0024665.00063947.0042022.00169.0050244.0028776.0007765.001279.0011876.0029233.0011876.0047504v.33645h.066414c.0019184 0 .0036541.00063947.0052528.00169.0015073.0011876.0028776.0030147.0040652.0056182.0011876.0024665.0019641.0058009.0024665.0098662.00054812.0040652.00086786.0091353.00086786.015256zm.32668 0c0 .0058923-.00031974.010825-.00095921.014936-.00063947.0040652-.0015073.0073996-.0026949.0097748s-.0024665.0042022-.0039739.0051615c-.0013703.0010506-.003106.0015987-.0050244.0015987h-.22464c-.0017357 0-.0033344-.00054812-.0047504-.0015987-.0014616-.00095921-.0027863-.0027863-.0039739-.0051615-.0011419-.0023752-.0020098-.0057096-.0026492-.0097748-.00063947-.0041109-.00095921-.009044-.00095921-.014936 0-.0061207.00031974-.011191.00082218-.015256.00054812-.0040652.0013246-.0073996.0024665-.0098662.0011876-.0026036.0025122-.0044306.0039739-.0056182.001416-.0010506.0031517-.00169.0050701-.00169h.075823v-.26502l-.0655.036176c-.0048417.0023752-.0087242.0037912-.01183.0042936-.0030147.00054812-.0053898-.00009135-.0072169-.0019184-.0018271-.0017357-.002969-.0048417-.0036085-.0092267-.00054812-.0044306-.00086786-.010643-.00086786-.01859 0-.0050701.00009135-.0091353.00031974-.01247.00009135-.0031974.00063947-.0060293.0015073-.0082675.00082218-.0023752.0020098-.0042022.0034258-.0057096.0015073-.0015073.0035628-.0030147.0060293-.0047047l.087516-.056639c.0010049-.00082218.0022838-.0015073.0038825-.0020098.0015987-.00054812.0036541-.00095921.0061207-.001279.0026036-.00036541.0058009-.00054812.010003-.00068515.0040652-.00009135.009318-.00009135.015896-.00009135.0079477 0 .014388.00009135.019321.00041109.0049331.00036541.0085872.00086786.011191.0016444.0024665.00063947.0042022.00169.0050244.0028776.0007765.001279.0011876.0029233.0011876.0047504v.33645h.066414c.0019184 0 .0036541.00063947.0052528.00169.0015073.0011876.0028776.0030147.0040652.0056182.0011876.0024665.0019641.0058009.0024665.0098662.00054812.0040652.00086786.0091353.00086786.015256zm.3386-.17371c0 .032568-.0025579.061892-.0078107.08811-.0052985.026173-.013886.048554-.025716.067008-.011785.018499-.027269.032659-.04627.042525-.01891.0097748-.042205.014754-.069748.014754-.027817 0-.050884-.0047504-.069154-.014297-.018271-.0095921-.03275-.023341-.043393-.041246-.010734-.017951-.018271-.039876-.022564-.065774-.0042936-.025853-.0064404-.055177-.0064404-.087973 0-.032339.0026949-.061664.0080391-.087973.0053898-.02631.013977-.048646.025807-.067145.011785-.018453.027269-.032659.04627-.042525.01891-.0099118.042114-.014708.069428-.014708.027817 0 .051021.0047047.069383.014251.018271.0095921.032842.023341.043484.041292.010734.017905.018179.03983.022336.065729.0042022.025899.006349.055223.006349.087973zm-.08336.0040652c0-.019321-.00054812-.036313-.0015987-.051112-.0010962-.014845-.0026949-.027634-.0048417-.038551-.0022382-.010962-.0049331-.020235-.0082675-.027726-.003243-.0075366-.0072169-.013566-.011693-.018042-.0046133-.004522-.0099118-.007765-.015804-.0096834-.0058923-.0018271-.012378-.0027863-.01955-.0027863-.012378 0-.022564.0030147-.030603.008907-.0080848.0060293-.014525.015028-.01923.026949-.0047504.011922-.0080848.026858-.0099118.044717-.0019184.017814-.0028776.038551-.0028776.062303 0 .029005.0011876.052939.0035171.071849.0022838.019002.005938.034166.010871.045357.0049331.011282.011282.019093.019002.023615.007765.004522.017083.0067601.028046.0067601.0081761 0 .015347-.001279.021696-.0039739.0062577-.0025579.01183-.0065318.016535-.011693.0047504-.0052528.0085872-.011922.011739-.019869.0031974-.0079477.0058009-.017174.0077194-.027726.0020554-.010414.0033344-.022336.0040652-.035536.0007765-.013246.0011876-.027863.0011876-.043758z" fill="#fff" fill-rule="nonzero"/></svg>