<svg xmlns="http://www.w3.org/2000/svg" xml:space="preserve" style="fill-rule:evenodd;text-rendering:geometricPrecision;image-rendering:optimizeQuality;clip-rule:evenodd;shape-rendering:geometricPrecision" viewBox="0 0 2.902 2.902"><defs><style>.str1{stroke:#e77817;stroke-width:.161136;stroke-linecap:round}.fil1{fill:none}</style></defs><g id="Diagram"><g id="_48926336"><path id="_90494528" d="M.766.309h1.37c.252 0 .457.205.457.457v1.37a.458.458 0 0 1-.457.457H.766a.458.458 0 0 1-.457-.457V.766c0-.252.205-.457.457-.457z" style="fill:#4d4948;stroke:#4d4948;stroke-width:.0402754"/><path id="_89140104" d="M.309 1.908H.081" class="fil1 str1"/><path id="_48645576" d="M.309 1.679H.081" class="fil1 str1"/><path id="_90012816" d="M.309 1.222H.081" class="fil1 str1"/><path id="_89605808" d="M.309 1.451H.081" class="fil1 str1"/><path id="_88952184" d="M.309.994H.081" class="fil1 str1"/><path id="_89061504" d="M.309.766H.081" class="fil1 str1"/><path id="_47801304" d="M.309 2.136H.081" class="fil1 str1"/><path id="_87389672" d="M2.821 1.908h-.228" class="fil1 str1"/><path id="_87302792" d="M2.821 1.679h-.228" class="fil1 str1"/><path id="_48540968" d="M2.821 1.222h-.228" class="fil1 str1"/><path id="_88243760" d="M2.821 1.451h-.228" class="fil1 str1"/><path id="_48734880" d="M2.821.994h-.228" class="fil1 str1"/><path id="_48558064" d="M2.821.766h-.228" class="fil1 str1"/><path id="_46316176" d="M2.821 2.136h-.228" class="fil1 str1"/><path id="_87165400" d="M.994 2.821v-.228" class="fil1 str1"/><path id="_87177760" d="M1.223 2.821v-.228" class="fil1 str1"/><path id="_88122544" d="M1.679 2.821v-.228" class="fil1 str1"/><path id="_48874680" d="M1.451 2.821v-.228" class="fil1 str1"/><path id="_87109808" d="M1.908 2.821v-.228" class="fil1 str1"/><path id="_47812144" d="M2.136 2.821v-.228" class="fil1 str1"/><path id="_88574048" d="M.766 2.821v-.228" class="fil1 str1"/><path id="_47807464" d="M.994.309V.081" class="fil1 str1"/><path id="_89272840" d="M1.223.309V.081" class="fil1 str1"/><path id="_88871976" d="M1.679.309V.081" class="fil1 str1"/><path id="_88766448" d="M1.451.309V.081" class="fil1 str1"/><path id="_87712736" d="M1.908.309V.081" class="fil1 str1"/><path id="_48819824" d="M2.136.309V.081" class="fil1 str1"/><path id="_87129584" d="M.766.309V.081" class="fil1 str1"/><path id="_88809256" d="M.903.629h1.096c.15 0 .274.123.274.274v1.096a.275.275 0 0 1-.274.274H.903a.275.275 0 0 1-.274-.274V.903c0-.151.123-.274.274-.274z" style="fill:#75c5f0;stroke:#007cc3;stroke-width:.0805622"/><path id="_48961616" d="M1.127.972a.45.45 0 0 1-.008.088.195.195 0 0 1-.026.067.12.12 0 0 1-.046.042.15.15 0 0 1-.07.015.149.149 0 0 1-.069-.014.108.108 0 0 1-.043-.042.187.187 0 0 1-.023-.065.54.54 0 0 1 .002-.176A.197.197 0 0 1 .87.82.12.12 0 0 1 .916.777a.148.148 0 0 1 .07-.015.15.15 0 0 1 .069.015c.018.01.032.023.043.04.01.019.018.04.022.067a.553.553 0 0 1 .007.088zm-.084.004a.729.729 0 0 0-.006-.09.136.136 0 0 0-.008-.028.057.057 0 0 0-.012-.018.04.04 0 0 0-.016-.01.066.066 0 0 0-.02-.002.05.05 0 0 0-.03.009.06.06 0 0 0-.02.027.169.169 0 0 0-.01.044.59.59 0 0 0 .012.18c.005.011.012.019.02.023a.055.055 0 0 0 .027.007.055.055 0 0 0 .022-.004.046.046 0 0 0 .017-.011.065.065 0 0 0 .011-.02.26.26 0 0 0 .012-.063l.001-.044zm.399.17-.001.014-.003.01a.014.014 0 0 1-.004.005.008.008 0 0 1-.005.002h-.225c-.001 0-.003 0-.004-.002a.013.013 0 0 1-.004-.005.037.037 0 0 1-.003-.01.126.126 0 0 1 0-.03l.002-.01a.015.015 0 0 1 .004-.005.008.008 0 0 1 .005-.002h.076V.848l-.065.036a.045.045 0 0 1-.012.004c-.003 0-.006 0-.007-.002-.002-.001-.003-.004-.004-.009a.16.16 0 0 1 0-.04l.004-.005a.043.043 0 0 1 .006-.005L1.29.771a.011.011 0 0 1 .004-.002.098.098 0 0 1 .016-.002h.016a.32.32 0 0 1 .03.002c.003 0 .004.002.005.003a.01.01 0 0 1 .001.004v.337h.067a.01.01 0 0 1 .005.002.015.015 0 0 1 .004.005.033.033 0 0 1 .003.01v.015zM1.78.971a.45.45 0 0 1-.008.088.195.195 0 0 1-.025.067.12.12 0 0 1-.047.042.15.15 0 0 1-.07.015.149.149 0 0 1-.069-.014.108.108 0 0 1-.043-.042.187.187 0 0 1-.022-.065.54.54 0 0 1 .001-.176.197.197 0 0 1 .026-.067.12.12 0 0 1 .046-.043.148.148 0 0 1 .07-.015.15.15 0 0 1 .069.015c.018.01.033.023.043.04.011.019.019.04.023.067a.553.553 0 0 1 .006.088zm-.083.004a.729.729 0 0 0-.007-.09.136.136 0 0 0-.008-.028A.057.057 0 0 0 1.67.84a.04.04 0 0 0-.015-.01.066.066 0 0 0-.02-.002.05.05 0 0 0-.03.009.06.06 0 0 0-.02.027.169.169 0 0 0-.01.044.59.59 0 0 0 .012.18c.005.011.011.019.019.023a.055.055 0 0 0 .028.007.055.055 0 0 0 .022-.004.046.046 0 0 0 .016-.011.065.065 0 0 0 .012-.02.26.26 0 0 0 .012-.063V.975zm.398.17-.001.014c0 .004-.002.008-.003.01l-.004.005a.008.008 0 0 1-.005.002h-.224c-.002 0-.004 0-.005-.002a.013.013 0 0 1-.004-.005.037.037 0 0 1-.003-.01.126.126 0 0 1 0-.03c0-.004.001-.007.003-.01a.015.015 0 0 1 .004-.005.008.008 0 0 1 .005-.002h.075V.848l-.065.036a.045.045 0 0 1-.012.004c-.003 0-.005 0-.007-.002-.002-.001-.003-.004-.004-.009a.16.16 0 0 1 .001-.04L1.85.833a.043.043 0 0 1 .006-.005l.087-.056a.011.011 0 0 1 .004-.002.098.098 0 0 1 .016-.002h.016a.32.32 0 0 1 .03.002c.003 0 .005.002.006.003a.01.01 0 0 1 0 .004v.337h.067a.01.01 0 0 1 .006.002.015.015 0 0 1 .004.005.033.033 0 0 1 .002.01v.015zm-.98.471-.001.015c0 .004-.002.008-.003.01l-.004.005a.008.008 0 0 1-.005.002H.878c-.002 0-.004 0-.005-.002a.013.013 0 0 1-.004-.005.037.037 0 0 1-.003-.01.126.126 0 0 1 0-.03c0-.004.001-.007.003-.01a.015.015 0 0 1 .004-.005.008.008 0 0 1 .005-.002h.075V1.32l-.065.036a.045.045 0 0 1-.012.004c-.003.001-.005 0-.007-.001-.002-.002-.003-.005-.004-.01a.16.16 0 0 1 .001-.04l.004-.005A.043.043 0 0 1 .876 1.3l.087-.057a.011.011 0 0 1 .004-.002.098.098 0 0 1 .016-.002H1a.32.32 0 0 1 .03.002c.003 0 .005.002.006.003a.01.01 0 0 1 0 .005v.336h.067a.01.01 0 0 1 .005.002.015.015 0 0 1 .005.005.033.033 0 0 1 .002.01v.015zm.338-.173a.45.45 0 0 1-.007.088.195.195 0 0 1-.026.067.12.12 0 0 1-.046.042.15.15 0 0 1-.07.015.149.149 0 0 1-.07-.014.108.108 0 0 1-.043-.041.187.187 0 0 1-.022-.066.54.54 0 0 1 .001-.176.197.197 0 0 1 .026-.067.12.12 0 0 1 .046-.043.148.148 0 0 1 .07-.015.15.15 0 0 1 .07.015c.018.01.032.023.043.041.01.018.018.04.022.066a.553.553 0 0 1 .006.088zm-.083.004a.729.729 0 0 0-.006-.09.136.136 0 0 0-.009-.028.057.057 0 0 0-.011-.018.04.04 0 0 0-.016-.01.066.066 0 0 0-.02-.002.05.05 0 0 0-.03.009.06.06 0 0 0-.02.027.169.169 0 0 0-.01.044.59.59 0 0 0 .012.18c.005.011.011.019.02.024a.055.055 0 0 0 .027.006.055.055 0 0 0 .022-.004.046.046 0 0 0 .016-.011.065.065 0 0 0 .012-.02.26.26 0 0 0 .012-.063l.001-.044zm.398.17v.014l-.003.01a.014.014 0 0 1-.004.005.008.008 0 0 1-.005.002H1.53c-.002 0-.003 0-.005-.002a.013.013 0 0 1-.004-.005.037.037 0 0 1-.002-.01.126.126 0 0 1 0-.03c0-.004 0-.007.002-.01a.015.015 0 0 1 .004-.005.008.008 0 0 1 .005-.002h.076V1.32l-.066.036a.045.045 0 0 1-.012.004c-.003.001-.005 0-.007-.002-.002-.001-.003-.004-.003-.009a.16.16 0 0 1 0-.04l.004-.005a.043.043 0 0 1 .006-.004l.088-.057a.011.011 0 0 1 .003-.002.098.098 0 0 1 .016-.002h.016a.32.32 0 0 1 .031.002c.002 0 .004.002.005.003a.01.01 0 0 1 .001.005v.336h.067a.01.01 0 0 1 .005.002.015.015 0 0 1 .004.005.033.033 0 0 1 .002.01l.001.015zm.339-.174a.45.45 0 0 1-.008.088.195.195 0 0 1-.026.067.12.12 0 0 1-.046.042.15.15 0 0 1-.07.015.149.149 0 0 1-.069-.014.108.108 0 0 1-.043-.041.187.187 0 0 1-.023-.066.54.54 0 0 1 .002-.176.197.197 0 0 1 .026-.067.12.12 0 0 1 .046-.043.148.148 0 0 1 .07-.015.15.15 0 0 1 .069.015c.018.01.033.023.043.041.01.018.018.04.022.066a.553.553 0 0 1 .007.088zm-.084.004a.729.729 0 0 0-.006-.09.136.136 0 0 0-.008-.028.057.057 0 0 0-.012-.018.04.04 0 0 0-.016-.01.066.066 0 0 0-.02-.002.05.05 0 0 0-.03.009.06.06 0 0 0-.02.027.169.169 0 0 0-.009.044.59.59 0 0 0 .011.18c.005.011.012.019.02.024a.055.055 0 0 0 .028.006.055.055 0 0 0 .021-.004A.046.046 0 0 0 2 1.575a.065.065 0 0 0 .012-.02.26.26 0 0 0 .012-.063v-.044zm-.896.468a.45.45 0 0 1-.008.088.195.195 0 0 1-.026.067.12.12 0 0 1-.046.042.15.15 0 0 1-.07.015.149.149 0 0 1-.069-.014.108.108 0 0 1-.043-.041.187.187 0 0 1-.023-.066.54.54 0 0 1 .002-.176.197.197 0 0 1 .026-.067.12.12 0 0 1 .046-.043.148.148 0 0 1 .07-.014.15.15 0 0 1 .069.014c.018.01.032.023.043.041.01.018.018.04.022.066a.553.553 0 0 1 .007.088zm-.084.004a.729.729 0 0 0-.006-.09.136.136 0 0 0-.008-.028.057.057 0 0 0-.012-.018.04.04 0 0 0-.016-.01.066.066 0 0 0-.02-.002.05.05 0 0 0-.03.009.06.06 0 0 0-.02.027.169.169 0 0 0-.01.044.59.59 0 0 0 .012.18c.005.011.012.02.02.024a.055.055 0 0 0 .027.006.055.055 0 0 0 .022-.004.046.046 0 0 0 .017-.011.065.065 0 0 0 .011-.02.26.26 0 0 0 .012-.063l.001-.044zm.399.17-.001.014-.003.01a.014.014 0 0 1-.004.005.008.008 0 0 1-.005.002h-.225c-.001 0-.003 0-.004-.002a.013.013 0 0 1-.004-.005.037.037 0 0 1-.003-.01.126.126 0 0 1 0-.03l.002-.01A.015.015 0 0 1 1.2 2.06a.008.008 0 0 1 .005-.002h.076v-.265l-.065.036a.045.045 0 0 1-.012.004c-.003.001-.006 0-.007-.001-.002-.002-.003-.005-.004-.01a.16.16 0 0 1 0-.039l.004-.006a.043.043 0 0 1 .006-.004l.088-.057a.011.011 0 0 1 .004-.002.098.098 0 0 1 .016-.002h.016a.32.32 0 0 1 .03.002c.003 0 .004.002.005.003a.01.01 0 0 1 .001.005v.336h.067a.01.01 0 0 1 .005.002.015.015 0 0 1 .004.005.033.033 0 0 1 .003.01v.015zm.326 0v.014l-.003.01a.014.014 0 0 1-.004.005.008.008 0 0 1-.005.002H1.53c-.002 0-.003 0-.005-.002a.013.013 0 0 1-.004-.005.037.037 0 0 1-.002-.01.126.126 0 0 1 0-.03c0-.004 0-.007.002-.01a.015.015 0 0 1 .004-.005.008.008 0 0 1 .005-.002h.076v-.265l-.066.036a.045.045 0 0 1-.012.004c-.003.001-.005 0-.007-.001-.002-.002-.003-.005-.003-.01a.16.16 0 0 1 0-.039l.004-.006a.043.043 0 0 1 .006-.004l.088-.057a.011.011 0 0 1 .003-.002.098.098 0 0 1 .016-.002h.016a.32.32 0 0 1 .031.002c.002 0 .004.002.005.003a.01.01 0 0 1 .001.005v.336h.067a.01.01 0 0 1 .005.002.015.015 0 0 1 .004.005.033.033 0 0 1 .002.01l.001.015zm.339-.174a.45.45 0 0 1-.008.088.195.195 0 0 1-.026.067.12.12 0 0 1-.046.042.15.15 0 0 1-.07.015.149.149 0 0 1-.069-.014.108.108 0 0 1-.043-.041.187.187 0 0 1-.023-.066.54.54 0 0 1 .002-.176.197.197 0 0 1 .026-.067.12.12 0 0 1 .046-.043.148.148 0 0 1 .07-.014.15.15 0 0 1 .069.014c.018.01.033.023.043.041.01.018.018.04.022.066a.553.553 0 0 1 .007.088zm-.084.004a.729.729 0 0 0-.006-.09.136.136 0 0 0-.008-.028.057.057 0 0 0-.012-.018.04.04 0 0 0-.016-.01.066.066 0 0 0-.02-.002.05.05 0 0 0-.03.009.06.06 0 0 0-.02.027.169.169 0 0 0-.009.044.59.59 0 0 0 .011.18c.005.011.012.02.02.024a.055.055 0 0 0 .028.006.055.055 0 0 0 .021-.004A.046.046 0 0 0 2 2.047a.065.065 0 0 0 .012-.02.26.26 0 0 0 .012-.063V1.92z" style="fill:#fff;fill-rule:nonzero"/></g></g></svg>